<svg width="16" height="12" viewBox="0 0 16 12" fill="none" xmlns="http://www.w3.org/2000/svg">
<path d="M14.3888 0.00012207C14.8384 0.00012207 15.2194 0.146321 15.5316 0.438719C15.8439 0.731116 16 1.08784 16 1.50889V10.4914C16 10.9124 15.8439 11.2691 15.5316 11.5615C15.2194 11.8539 14.8384 12.0001 14.3888 12.0001H1.61124C1.16159 12.0001 0.78064 11.8539 0.468384 11.5615C0.156128 11.2691 0 10.9124 0 10.4914V1.50889C0 1.08784 0.156128 0.731116 0.468384 0.438719C0.78064 0.146321 1.16159 0.00012207 1.61124 0.00012207H14.3888ZM14.3888 3.01767V1.50889L7.98126 5.26328L1.61124 1.50889V3.01767L7.98126 6.73696L14.3888 3.01767Z" fill="#242424"/>
</svg>
