<svg width="50" height="50" viewBox="0 0 50 50" fill="none" xmlns="http://www.w3.org/2000/svg">
<rect x="0.342163" width="49.1711" height="49.1711" fill="#29282F"/>
<path d="M24.9277 9.6731C20.8808 9.6731 20.3719 9.69174 18.7819 9.76257C17.1918 9.83713 16.1088 10.0869 15.16 10.456C14.1647 10.8303 13.2633 11.4175 12.5186 12.1765C11.76 12.9216 11.1729 13.823 10.798 14.8179C10.429 15.7649 10.1773 16.8498 10.1046 18.4342C10.0338 20.028 10.0151 20.535 10.0151 24.5875C10.0151 28.6363 10.0338 29.1433 10.1046 30.7333C10.1792 32.3215 10.429 33.4046 10.798 34.3534C11.1802 35.3339 11.6891 36.1652 12.5186 36.9947C13.3462 37.8243 14.1776 38.335 15.1581 38.7153C16.1088 39.0844 17.1899 39.336 18.7781 39.4087C20.37 39.4795 20.8771 39.4982 24.9277 39.4982C28.9783 39.4982 29.4835 39.4795 31.0754 39.4087C32.6617 39.3342 33.7485 39.0844 34.6973 38.7153C35.6919 38.3408 36.5927 37.7536 37.3368 36.9947C38.1663 36.1652 38.6752 35.3339 39.0573 34.3534C39.4245 33.4046 39.6762 32.3215 39.7508 30.7333C39.8216 29.1433 39.8402 28.6363 39.8402 24.5856C39.8402 20.535 39.8216 20.028 39.7508 18.4361C39.6762 16.8498 39.4245 15.7649 39.0573 14.8179C38.6825 13.8229 38.0954 12.9216 37.3368 12.1765C36.5923 11.4173 35.6908 10.83 34.6954 10.456C33.7447 10.0869 32.6598 9.83527 31.0735 9.76257C29.4816 9.69174 28.9764 9.6731 24.924 9.6731H24.9295H24.9277ZM23.5911 12.3611H24.9295C28.9112 12.3611 29.3828 12.3741 30.9542 12.4468C32.4082 12.5121 33.1986 12.7563 33.7242 12.9594C34.4195 13.2297 34.9172 13.5541 35.4392 14.076C35.9611 14.598 36.2836 15.0938 36.5539 15.791C36.7589 16.3148 37.0013 17.1051 37.0665 18.5591C37.1392 20.1305 37.1541 20.6021 37.1541 24.5819C37.1541 28.5617 37.1392 29.0352 37.0665 30.6066C37.0013 32.0606 36.7571 32.8491 36.5539 33.3747C36.3148 34.0222 35.9332 34.6077 35.4373 35.0878C34.9154 35.6097 34.4195 35.9322 33.7224 36.2025C33.2004 36.4076 32.4101 36.6499 30.9542 36.717C29.3828 36.7878 28.9112 36.8046 24.9295 36.8046C20.9479 36.8046 20.4744 36.7878 18.903 36.717C17.449 36.6499 16.6605 36.4076 16.1349 36.2025C15.4871 35.9638 14.9011 35.5829 14.4199 35.0878C13.9236 34.6069 13.5414 34.0209 13.3015 33.3729C13.0983 32.8491 12.8541 32.0587 12.7889 30.6047C12.718 29.0333 12.7031 28.5617 12.7031 24.5782C12.7031 20.5965 12.718 20.1268 12.7889 18.5554C12.856 17.1014 13.0983 16.311 13.3034 15.7854C13.5736 15.0901 13.898 14.5924 14.4199 14.0704C14.9419 13.5485 15.4377 13.226 16.1349 12.9557C16.6605 12.7507 17.449 12.5083 18.903 12.4412C20.2787 12.3779 20.8118 12.3592 23.5911 12.3574V12.3611ZM32.8891 14.8366C32.6541 14.8366 32.4214 14.8829 32.2043 14.9728C31.9872 15.0627 31.7899 15.1945 31.6237 15.3607C31.4576 15.5269 31.3258 15.7241 31.2358 15.9413C31.1459 16.1584 31.0996 16.3911 31.0996 16.6261C31.0996 16.8611 31.1459 17.0938 31.2358 17.3109C31.3258 17.528 31.4576 17.7253 31.6237 17.8914C31.7899 18.0576 31.9872 18.1894 32.2043 18.2794C32.4214 18.3693 32.6541 18.4156 32.8891 18.4156C33.3637 18.4156 33.8189 18.227 34.1545 17.8914C34.4901 17.5558 34.6786 17.1007 34.6786 16.6261C34.6786 16.1515 34.4901 15.6963 34.1545 15.3607C33.8189 15.0251 33.3637 14.8366 32.8891 14.8366ZM24.9295 16.928C23.9138 16.9122 22.905 17.0986 21.9619 17.4763C21.0188 17.8541 20.1604 18.4157 19.4364 19.1284C18.7125 19.8412 18.1376 20.6908 17.7451 21.6279C17.3527 22.5649 17.1506 23.5707 17.1506 24.5866C17.1506 25.6025 17.3527 26.6082 17.7451 27.5453C18.1376 28.4824 18.7125 29.332 19.4364 30.0447C20.1604 30.7574 21.0188 31.319 21.9619 31.6968C22.905 32.0746 23.9138 32.2609 24.9295 32.2451C26.94 32.2137 28.8575 31.3931 30.2682 29.9602C31.6789 28.5274 32.4695 26.5973 32.4695 24.5866C32.4695 22.5759 31.6789 20.6458 30.2682 19.2129C28.8575 17.7801 26.94 16.9594 24.9295 16.928ZM24.9295 19.6142C26.2481 19.6142 27.5126 20.138 28.4449 21.0703C29.3772 22.0026 29.901 23.2671 29.901 24.5856C29.901 25.9042 29.3772 27.1687 28.4449 28.101C27.5126 29.0333 26.2481 29.5571 24.9295 29.5571C23.611 29.5571 22.3465 29.0333 21.4142 28.101C20.4819 27.1687 19.9581 25.9042 19.9581 24.5856C19.9581 23.2671 20.4819 22.0026 21.4142 21.0703C22.3465 20.138 23.611 19.6142 24.9295 19.6142Z" fill="white"/>
</svg>
