<svg width="12" height="17" viewBox="0 0 12 17" fill="none" xmlns="http://www.w3.org/2000/svg">
<path d="M5.99745 0.000122071C4.41164 0.00144659 2.89079 0.630255 1.76706 1.74921C0.643341 2.86816 0.00806975 4.38633 0 5.97212C0 8.34972 1.3339 10.3404 2.31141 11.7914L2.48961 12.0561C3.46217 13.4657 4.50551 14.8251 5.61561 16.1291L6.00255 16.5822L6.38948 16.1291C7.49944 14.825 8.54277 13.4656 9.51548 12.0561L9.69368 11.7863C10.6661 10.3353 12 8.34972 12 5.97212C11.9919 4.38545 11.356 2.86651 10.2311 1.74741C9.10631 0.628316 7.58415 0.000101524 5.99745 0.000122071ZM5.99745 8.65519C5.3369 8.65519 4.69117 8.45931 4.14194 8.09233C3.59271 7.72534 3.16463 7.20373 2.91185 6.59345C2.65906 5.98318 2.59292 5.31165 2.72179 4.66378C2.85066 4.01592 3.16875 3.42082 3.63583 2.95373C4.10292 2.48665 4.69802 2.16856 5.34588 2.03969C5.99375 1.91082 6.66528 1.97696 7.27555 2.22974C7.88583 2.48253 8.40744 2.9106 8.77443 3.45984C9.14141 4.00907 9.33729 4.6548 9.33729 5.31535C9.33729 6.20113 8.98542 7.05063 8.35908 7.67698C7.73274 8.30332 6.88323 8.65519 5.99745 8.65519Z" fill="#242424"/>
<path d="M5.99741 7.21443C7.04621 7.21443 7.89644 6.36421 7.89644 5.31541C7.89644 4.2666 7.04621 3.41638 5.99741 3.41638C4.94861 3.41638 4.09839 4.2666 4.09839 5.31541C4.09839 6.36421 4.94861 7.21443 5.99741 7.21443Z" fill="#242424"/>
</svg>
