<svg width="14" height="14" viewBox="0 0 14 14" fill="none" xmlns="http://www.w3.org/2000/svg">
<path d="M14 11.0569C14 11.2359 13.9669 11.4696 13.9006 11.7579C13.8343 12.0463 13.7647 12.2733 13.6918 12.439C13.5526 12.7705 13.1482 13.1218 12.4787 13.493C11.8556 13.8311 11.2391 14.0001 10.6293 14.0001C10.4503 14.0001 10.2746 13.9885 10.1023 13.9653C9.92992 13.9421 9.73935 13.9007 9.53054 13.841C9.32173 13.7814 9.16596 13.7333 9.06321 13.6969C8.96046 13.6604 8.77652 13.5925 8.51136 13.493C8.24621 13.3936 8.08381 13.3339 8.02415 13.314C7.37453 13.082 6.79451 12.8069 6.28409 12.4888C5.44223 11.9651 4.56723 11.2492 3.65909 10.341C2.75095 9.43289 2.03504 8.55789 1.51136 7.71603C1.19318 7.20561 0.918087 6.6256 0.68608 5.97597C0.666193 5.91632 0.606534 5.75391 0.507102 5.48876C0.40767 5.22361 0.339725 5.03966 0.303267 4.93691C0.266809 4.83417 0.21875 4.67839 0.159091 4.46958C0.0994318 4.26078 0.0580019 4.0702 0.0348011 3.89785C0.0116004 3.7255 0 3.54984 0 3.37086C0 2.76101 0.169034 2.14453 0.507102 1.52143C0.878314 0.851921 1.22964 0.447565 1.56108 0.308361C1.7268 0.235444 1.95384 0.165842 2.24219 0.0995539C2.53054 0.033266 2.7642 0.00012207 2.94318 0.00012207C3.03598 0.00012207 3.10559 0.0100653 3.15199 0.0299516C3.27131 0.0697243 3.44697 0.321618 3.67898 0.785633C3.75189 0.91158 3.85133 1.09056 3.97727 1.32257C4.10322 1.55457 4.21922 1.76504 4.32528 1.95396C4.43134 2.14288 4.53409 2.3202 4.63352 2.48592C4.65341 2.51243 4.71141 2.59529 4.80753 2.7345C4.90365 2.8737 4.97491 2.99136 5.02131 3.08748C5.06771 3.1836 5.09091 3.27806 5.09091 3.37086C5.09091 3.50344 4.99645 3.66916 4.80753 3.86802C4.61861 4.06688 4.41312 4.24918 4.19105 4.41489C3.96899 4.58061 3.76349 4.75628 3.57457 4.94188C3.38565 5.12749 3.29119 5.27995 3.29119 5.39927C3.29119 5.45893 3.30777 5.5335 3.34091 5.62299C3.37405 5.71248 3.40223 5.78043 3.42543 5.82683C3.44863 5.87323 3.49503 5.95277 3.56463 6.06546C3.63423 6.17815 3.67235 6.24113 3.67898 6.25438C4.18277 7.16253 4.75947 7.94141 5.40909 8.59103C6.05871 9.24065 6.83759 9.81736 7.74574 10.3211C7.759 10.3278 7.82197 10.3659 7.93466 10.4355C8.04735 10.5051 8.12689 10.5515 8.1733 10.5747C8.2197 10.5979 8.28764 10.6261 8.37713 10.6592C8.46662 10.6924 8.54119 10.7089 8.60085 10.7089C8.72017 10.7089 8.87263 10.6145 9.05824 10.4255C9.24384 10.2366 9.41951 10.0311 9.58523 9.80907C9.75095 9.58701 9.93324 9.38151 10.1321 9.19259C10.331 9.00367 10.4967 8.90921 10.6293 8.90921C10.7221 8.90921 10.8165 8.93241 10.9126 8.97882C11.0088 9.02522 11.1264 9.09648 11.2656 9.19259C11.4048 9.28871 11.4877 9.34671 11.5142 9.3666C11.6799 9.46603 11.8572 9.56878 12.0462 9.67484C12.2351 9.7809 12.4455 9.8969 12.6776 10.0228C12.9096 10.1488 13.0885 10.2482 13.2145 10.3211C13.6785 10.5532 13.9304 10.7288 13.9702 10.8481C13.9901 10.8945 14 10.9641 14 11.0569Z" fill="#242424"/>
</svg>
