<svg width="50" height="50" viewBox="0 0 50 50" fill="none" xmlns="http://www.w3.org/2000/svg">
<rect x="0.171143" width="49.1711" height="49.1711" fill="#29282F"/>
<path d="M19.8234 35.3187C21.8658 35.3316 23.8904 34.9388 25.7798 34.1631C27.6692 33.3874 29.3858 32.2443 30.83 30.8001C32.2742 29.3559 33.4173 27.6393 34.193 25.7499C34.9687 23.8605 35.3615 21.8359 35.3486 19.7935V19.0801C36.4073 18.3045 37.3237 17.3513 38.0571 16.2629C37.0602 16.6989 36.0053 16.9881 34.9254 17.1214C36.0704 16.4392 36.9294 15.3653 37.3437 14.0986C36.2766 14.7387 35.1066 15.1887 33.8856 15.4286C33.0633 14.5524 31.9752 13.9717 30.7896 13.7762C29.604 13.5807 28.387 13.7814 27.327 14.3472C26.2669 14.913 25.4229 15.8124 24.9255 16.9062C24.4281 18 24.305 19.2273 24.5753 20.3981C22.4062 20.2916 20.2838 19.7295 18.3463 18.7483C16.4089 17.767 14.6998 16.3887 13.3304 14.7031C12.6399 15.9016 12.4306 17.3176 12.7449 18.6646C13.0592 20.0116 13.8736 21.1888 15.0232 21.9579C14.1752 21.9252 13.3467 21.6932 12.605 21.2808V21.3412C12.5974 22.5937 13.0194 23.8109 13.8004 24.79C14.5815 25.7691 15.6745 26.4509 16.8974 26.7218C16.1086 26.934 15.2823 26.967 14.4791 26.8186C14.8331 27.8867 15.5089 28.8191 16.4138 29.488C17.3186 30.1569 18.4083 30.5296 19.5333 30.5548C17.6098 32.1031 15.2192 32.9553 12.7501 32.973C12.3171 32.9605 11.8852 32.9241 11.4563 32.8642C13.9555 34.4565 16.8601 35.296 19.8234 35.2824" fill="white"/>
</svg>
